<svg xmlns="http://www.w3.org/2000/svg" width="164.195" height="20.431" viewBox="0 0 164.195 20.431">
  <path id="logotipo" d="M124-6.855v-12.29a4,4,0,0,1,5.968-3.482l10.871,6.144a4,4,0,0,1,0,6.965L129.968-3.373a3.971,3.971,0,0,1-1.963.523A4,4,0,0,1,124-6.855Zm145.679.361a6.38,6.38,0,0,1-1.594-4.482v-.469a6.941,6.941,0,0,1,1.547-4.664,5.26,5.26,0,0,1,4.254-1.805,4.922,4.922,0,0,1,3.919,1.565,6.184,6.184,0,0,1,1.365,4.213v1.769h-7.558l-.036.07a3.428,3.428,0,0,0,.791,2.11,2.651,2.651,0,0,0,2.1.808,7.066,7.066,0,0,0,1.951-.234,8.038,8.038,0,0,0,1.658-.715l.926,2.109a6.349,6.349,0,0,1-2.063,1.043,9.136,9.136,0,0,1-2.836.422A5.706,5.706,0,0,1,269.68-6.494Zm2.619-8.074a3.553,3.553,0,0,0-.673,1.881l.023.059h4.172v-.258a2.958,2.958,0,0,0-.457-1.751,1.689,1.689,0,0,0-1.476-.639A1.9,1.9,0,0,0,272.3-14.568Zm-16.465,8.1a7.309,7.309,0,0,1-1.3-4.523v-.247a8.24,8.24,0,0,1,1.3-4.839,4.2,4.2,0,0,1,3.65-1.84,3.548,3.548,0,0,1,1.711.41,4.118,4.118,0,0,1,1.336,1.172v-6.949h3.434V-5h-2.918l-.292-1.558a4.241,4.241,0,0,1-1.418,1.342,3.755,3.755,0,0,1-1.875.463A4.287,4.287,0,0,1,255.834-6.465Zm2.7-7.676a6.288,6.288,0,0,0-.581,2.906v.247a5.173,5.173,0,0,0,.563,2.619,1.959,1.959,0,0,0,1.828.955,2.668,2.668,0,0,0,1.29-.3,2.38,2.38,0,0,0,.9-.873v-5.4a2.637,2.637,0,0,0-.9-.932,2.384,2.384,0,0,0-1.271-.334A1.932,1.932,0,0,0,258.53-14.141ZM204.3-6.494a6.376,6.376,0,0,1-1.594-4.482v-.469a6.941,6.941,0,0,1,1.547-4.664,5.259,5.259,0,0,1,4.253-1.805,4.923,4.923,0,0,1,3.92,1.565,6.184,6.184,0,0,1,1.365,4.213v1.769h-7.559l-.035.07a3.428,3.428,0,0,0,.791,2.11,2.648,2.648,0,0,0,2.1.808,7.057,7.057,0,0,0,1.951-.234,8.024,8.024,0,0,0,1.659-.715l.925,2.109a6.343,6.343,0,0,1-2.062,1.043,9.136,9.136,0,0,1-2.836.422A5.7,5.7,0,0,1,204.3-6.494Zm2.619-8.074a3.561,3.561,0,0,0-.674,1.881l.023.059h4.172v-.258a2.958,2.958,0,0,0-.457-1.751,1.691,1.691,0,0,0-1.477-.639A1.9,1.9,0,0,0,206.92-14.568ZM172.256-6.553a6.779,6.779,0,0,1-1.588-4.658v-.246A6.8,6.8,0,0,1,172.25-16.1a5.515,5.515,0,0,1,4.383-1.811,5.574,5.574,0,0,1,4.406,1.805,6.77,6.77,0,0,1,1.593,4.652v.246a6.779,6.779,0,0,1-1.588,4.658,5.548,5.548,0,0,1-4.388,1.8A5.564,5.564,0,0,1,172.256-6.553Zm2.438-7.652a5.469,5.469,0,0,0-.616,2.748v.246a5.521,5.521,0,0,0,.609,2.784,2.1,2.1,0,0,0,1.969,1.048A2.082,2.082,0,0,0,178.6-8.434a5.486,5.486,0,0,0,.615-2.777v-.246a5.425,5.425,0,0,0-.621-2.754,2.1,2.1,0,0,0-1.957-1.066A2.074,2.074,0,0,0,174.694-14.2ZM281.165-5V-17.68h3.175l.152,1.875a4,4,0,0,1,1.155-1.553,2.575,2.575,0,0,1,1.634-.557,2.6,2.6,0,0,1,.475.041q.216.041.439.1l-.364,3.035-1.254-.035a2.273,2.273,0,0,0-1.254.317,2,2,0,0,0-.75.89V-5ZM249.078-5v-7.757a3.033,3.033,0,0,0-.474-1.928,1.749,1.749,0,0,0-1.424-.569,3,3,0,0,0-1.342.287,2.631,2.631,0,0,0-.955.791V-5h-3.422V-17.68h3.188l.152,1.816a4.649,4.649,0,0,1,1.559-1.512,4.046,4.046,0,0,1,2.074-.539,3.771,3.771,0,0,1,3,1.237,5.865,5.865,0,0,1,1.078,3.909V-5ZM235.285-5V-17.68h3.422V-5ZM222.019-5V-22.063h11.168v2.637h-7.746v4.7h6.551v2.637h-6.551V-5ZM197-5V-17.68h3.422V-5Zm-9.247,0L183.442-17.68h3.574l2.133,7.957.222,1.172h.07l.235-1.172,2.086-7.957h3.574L191.023-5ZM164.891-5V-16.648l-.07-.012L160.6-5h-2.32l-4.218-11.683-.071.012V-5H150.57V-22.063h4.488l4.336,12.574h.07l4.383-12.574h4.465V-5Zm70.394-15.714v-2.567h3.422v2.567Zm-38.285,0v-2.567h3.422v2.567Z" transform="translate(-124 23.281)" fill="#9e76b9"/>
</svg>
